# xmcd
#
# Track frame offsets: 
#        150
#        83394
#        113642
#        127632
#        155271
#        169633
#        193223
#        205413
#        231352
#        249474
#        279377
#
# Disc length: 4636 seconds
#
# Revision: 0
# Processed by: cddbd v1.5PL3 Copyright (c) Steve Scherf et al.
# Submitted via: ExactAudioCopy v0.95a4
#
DISCID=85121a0b
DTITLE=Van Morrison - Christmas Special
DYEAR=1998
DGENRE=Celtic
TTITLE0=See Me Through > Soldier Of Fortune > Thank You (Falletinme Be
TTITLE0=Mice Elf Agin) > Burning Ground
TTITLE1=Have I Told You Lately
TTITLE2=Days Like This
TTITLE3=Fire In The Belly
TTITLE4=Into The Mystic
TTITLE5=Sometimes We Cry
TTITLE6=Enlightenment
TTITLE7=It Once Was My Life
TTITLE8=If You Love Me
TTITLE9=The Healing Game
TTITLE10=I'll Take Care Of You > When The Clock Strikes > It's a Man's
TTITLE10=World > Hustle Time > No Prima Donna
EXTD=
EXTT0=
EXTT1=
EXTT2=
EXTT3=
EXTT4=
EXTT5=
EXTT6=
EXTT7=
EXTT8=
EXTT9=
EXTT10=
PLAYORDER=
